<svg width="664" height="335" viewBox="0 0 664 335" fill="none" xmlns="http://www.w3.org/2000/svg">
<path d="M3.4934 221.17C5.48358 221.17 5.82233 222.925 5.82233 224.659V261.319H0V263.074H19.2243V261.319H13.402C11.4118 261.319 11.073 259.565 11.073 257.831V240.833H27.5026V247.239H29.1328V233.39H27.5026V238.401H11.073V221.762H17.8269C26.444 221.762 29.5986 223.39 32.0546 225.251L33.2191 219.437H0V221.191H3.4934V221.17Z" fill="white"/>
<path d="M59.8536 241.234V221.741H63.347C70.9266 221.741 75.3516 225.822 75.3516 232.206C75.3516 238.084 71.2654 241.234 63.9398 241.234H59.8536ZM64.5114 219.415H48.7806V221.17H52.274C54.2641 221.17 54.6029 222.925 54.6029 224.659V261.319H48.7806V263.074H68.0048V261.319H62.1825C60.1923 261.319 59.8536 259.565 59.8536 257.831V242.989H63.8763L78.972 263.074H90.045V261.319H88.2877C85.4295 261.319 83.1006 259.797 80.7081 256.774L69.5716 242.693C75.9232 241.53 80.941 237.175 80.941 230.811C80.941 223.179 75.1187 219.415 64.5114 219.415Z" fill="white"/>
<path d="M105.289 221.17C107.279 221.17 107.618 222.925 107.618 224.659V261.319H101.796V263.074H134.422L136.179 256.668C131.352 259.226 125.106 260.749 117.759 260.749H115.198C113.207 260.749 112.869 258.994 112.869 257.26V240.854H129.065V247.26H130.695V233.412H129.065V238.422H112.869V221.783H119.051C125.699 221.783 129.764 222.608 133.279 225.272L134.443 219.458H101.817V221.212H105.31L105.289 221.17Z" fill="white"/>
<path d="M191.946 221.17H197.769V219.415H182.61V221.17H186.802C188.559 221.17 189.131 222.333 189.131 224.659V252.651L162.2 219.415H151.719V221.17H153.477C156.039 221.17 157.563 222.692 157.563 225.251V261.341H151.741V263.095H166.307V261.341H162.687C160.929 261.341 160.358 260.178 160.358 257.852V225.906L191.946 264.829V221.17Z" fill="white"/>
<path d="M213.606 242.926C213.606 255.505 222.117 263.645 235.286 263.645C242.865 263.645 248.455 261.658 253.24 258.698L252.075 252.884C249.746 257.831 245.194 261.319 237.276 261.319C227.367 261.319 219.788 254.913 219.788 241.192C219.788 227.471 227.897 221.17 238.906 221.17C245.088 221.17 249.281 223.263 251.377 225.948L252.541 220.134C248.815 219.204 245.427 218.845 240.769 218.845C224.679 218.845 213.606 228.507 213.606 242.947V242.926Z" fill="white"/>
<path d="M272.866 221.17C274.856 221.17 275.195 222.925 275.195 224.659V261.319H269.373V263.074H286.268V261.319H282.775C280.785 261.319 280.446 259.565 280.446 257.831V240.727H303.756V261.319H297.934V263.074H314.829V261.319H311.336C309.346 261.319 309.007 259.565 309.007 257.831V221.17H314.829V219.415H297.934V221.17H301.427C303.418 221.17 303.756 222.925 303.756 224.659V238.274H280.446V221.17H286.268V219.415H269.373V221.17H272.866Z" fill="white"/>
<path d="M414.169 242.926C414.169 255.505 422.68 263.645 435.849 263.645C443.429 263.645 449.018 261.658 453.803 258.698L452.639 252.884C450.31 257.831 445.758 261.319 437.839 261.319C427.931 261.319 420.351 254.913 420.351 241.192C420.351 227.471 428.46 221.17 439.47 221.17C445.652 221.17 449.844 223.263 451.94 225.948L453.104 220.134C449.378 219.204 445.991 218.845 441.333 218.845C425.242 218.845 414.169 228.507 414.169 242.947V242.926Z" fill="white"/>
<path d="M481.009 241.234V221.741H484.503C492.082 221.741 496.507 225.822 496.507 232.206C496.507 238.084 492.421 241.234 485.096 241.234H481.009ZM485.667 219.415H469.936V221.17H473.43C475.42 221.17 475.759 222.925 475.759 224.659V261.319H469.936V263.074H489.161V261.319H483.338C481.348 261.319 481.009 259.565 481.009 257.831V242.989H485.032L500.128 263.074H511.201V261.319H509.444C506.585 261.319 504.256 259.797 501.864 256.774L490.727 242.693C497.079 241.53 502.097 237.175 502.097 230.811C502.097 223.179 496.274 219.415 485.667 219.415Z" fill="white"/>
<path d="M533.686 244.786L541.096 227.09L547.448 244.786H533.686ZM557.822 257.831L542.663 217.682L524.137 261.319H520.644V263.074H534.046V261.319H529.853C528.689 261.319 528.223 260.685 528.223 259.691C528.223 257.831 529.684 254.406 530.912 251.425L532.606 247.344H548.4L553.418 261.319H546.664V263.074H563.56V261.319H561.231C559.6 261.319 558.669 260.03 557.843 257.831H557.822Z" fill="white"/>
<path d="M579.947 221.17C581.937 221.17 582.276 222.925 582.276 224.659V261.319H576.453V263.074H595.678V261.319H589.855C587.865 261.319 587.526 259.565 587.526 257.831V240.833H603.956V247.239H605.586V233.39H603.956V238.401H587.526V221.762H594.28C602.897 221.762 606.052 223.39 608.508 225.251L609.672 219.437H576.453V221.191H579.947V221.17Z" fill="white"/>
<path d="M626.123 219.415L624.959 225.23C628.219 222.544 632.305 221.741 637.196 221.741H639.525C641.515 221.741 641.854 223.496 641.854 225.23V261.319H636.032V263.074H652.927V261.319H649.434C647.443 261.319 647.105 259.565 647.105 257.831V221.741H649.201C655.849 221.741 660.507 222.439 662.836 225.23L664 219.415H626.123Z" fill="white"/>
<path d="M353.278 124.381C376.525 116.135 413.237 129.624 413.237 129.624C413.237 129.624 410.379 108.101 380.781 89.7707C408.431 41.1011 336.086 -22.9601 318.598 8.24594C316.735 11.6076 315.041 18.3942 315.062 24.8215C315.062 24.8215 286.289 14.4195 276.402 24.6735C265.604 35.8578 277.926 53.3636 279.895 56.1544C262.513 57.4864 253.79 66.2605 253.049 74.3368C251.948 86.1342 258.469 96.2191 271.575 102.35C239.668 139.54 240.219 182.564 240.219 182.564L249.725 175.735C253.536 153.071 256.225 129.539 277.397 104.887C287.983 107.425 293.869 106.917 300.305 103.746C312.035 97.9528 310.447 88.7347 303.058 86.5148C291.985 83.1743 277.799 95.7963 275.64 97.9316C262.746 91.2507 259.57 82.688 259.443 76.7682C259.295 70.4466 264.059 62.4126 284.447 62.0531C288.343 66.7256 302.55 77.6984 310.553 80.5315C317.645 83.0475 324.018 82.3075 326.876 78.227C327.977 76.6836 331.068 70.9118 323.785 64.0194C316.142 56.7887 302.19 54.9282 286.332 55.2876C283.071 50.6786 280.721 47.2747 279.684 43.9553C272.803 21.7347 294.187 23.257 315.147 31.2911C316.544 39.8326 320.736 51.8202 325.733 57.5498C331.195 63.8291 338.013 66.493 342.29 63.9982C344.343 62.7931 347.477 57.0424 344.957 48.7335C340.278 33.215 322.049 26.8935 322.049 26.8935C321.266 18.056 323.51 12.5378 325.204 10.0007C335.536 -5.51771 399.857 39.2829 375.17 87.2759C364.224 81.7789 352.516 79.6647 344.343 82.7515C338.669 84.908 336.234 89.0519 336.954 93.8089C337.738 98.9253 342.501 102.52 350.06 103.83C359.312 105.437 370.872 102.9 377.795 94.866C385.036 98.5025 399.116 108.799 403.71 120.934C392.044 117.277 370.194 113.027 350.335 118.207C326.686 124.381 327.025 148.652 334.244 163.431C341.464 178.188 365.939 215.145 363.483 255.442C360.519 303.837 321.096 334.958 321.096 334.958C359.291 305.824 369.221 272.779 370.089 253.898C370.936 235.441 367.971 213.009 356.369 188.653C344.576 163.896 338.013 158.969 338.69 143.324C339.431 126.664 353.278 124.317 353.278 124.317V124.381ZM301.618 92.4135C302.528 92.8998 303.015 93.6609 302.952 94.5277C302.867 95.6694 301.66 96.8322 299.247 98.2911C294.674 101.061 288.978 100.765 282.881 100.025C292.345 90.4684 299.204 91.0815 301.639 92.4135H301.618ZM322.917 74.21C322.155 76.6413 318.196 77.7619 314.025 76.3242C307.885 74.21 299.585 67.5078 293.551 61.7783C319.826 60.6155 323.658 71.7575 322.917 74.1888V74.21ZM340.808 53.2156C341.951 56.4927 341.252 58.5435 340.448 59.0721C339.029 59.6852 335.79 57.9515 332.021 53.6173C328.761 49.854 324.06 41.4817 323.446 33.4264C336.764 40.4668 338.966 47.9723 340.808 53.2156ZM351.309 98.4391C343.391 96.8111 343.983 90.5741 346.778 88.8404C355.84 83.2589 372.777 92.0752 373.159 92.2232C368.691 96.8957 360.667 100.384 351.309 98.4602V98.4391Z" fill="white"/>
</svg>
