<svg width="826" height="144" viewBox="0 0 826 144" fill="none" xmlns="http://www.w3.org/2000/svg">
<path d="M3.96 44.8303C6.2 44.8303 6.6 46.8103 6.6 48.7903V90.3703H0V92.3503H21.78V90.3703H15.18C12.94 90.3703 12.54 88.3903 12.54 86.4103V67.1403H31.15V74.4003H33V58.6903H31.15V64.3703H12.54V45.4903H20.2C29.97 45.4903 33.53 47.3403 36.31 49.4503L37.63 42.8503H0V44.8303H3.96Z" fill="white"/>
<path d="M67.79 67.6003V45.4903H71.75C80.33 45.4903 85.35 50.1103 85.35 57.3703C85.35 64.0403 80.73 67.6003 72.41 67.6003H67.79ZM73.07 42.8503H55.25V44.8303H59.21C61.45 44.8303 61.85 46.8103 61.85 48.7903V90.3703H55.25V92.3503H77.03V90.3703H70.43C68.19 90.3703 67.79 88.3903 67.79 86.4103V69.5803H72.34L89.44 92.3503H101.98V90.3703H100C96.77 90.3703 94.13 88.6503 91.42 85.2203L78.81 69.2503C86 67.9303 91.68 62.9803 91.68 55.7803C91.68 47.1303 85.08 42.8403 73.07 42.8403V42.8503Z" fill="white"/>
<path d="M119.26 44.8303C121.5 44.8303 121.9 46.8103 121.9 48.7903V90.3703H115.3V92.3503H152.26L154.24 85.0903C148.76 87.9903 141.7 89.7103 133.38 89.7103H130.48C128.24 89.7103 127.84 87.7303 127.84 85.7503V67.1403H146.19V74.4003H148.04V58.6903H146.19V64.3703H127.84V45.4903H134.84C142.36 45.4903 146.99 46.4103 150.95 49.4503L152.27 42.8503H115.31V44.8303H119.27H119.26Z" fill="white"/>
<path d="M217.41 94.3403V44.8303H224.01V42.8503H206.85V44.8303H211.6C213.58 44.8303 214.24 46.1503 214.24 48.7903V80.5403L183.74 42.8503H171.86V44.8303H173.84C176.74 44.8303 178.46 46.5503 178.46 49.4503V90.3703H171.86V92.3503H188.36V90.3703H184.27C182.29 90.3703 181.63 89.0503 181.63 86.4103V50.1703L217.41 94.3303V94.3403Z" fill="white"/>
<path d="M241.95 69.5203C241.95 83.7803 251.59 93.0203 266.5 93.0203C275.08 93.0203 281.42 90.7803 286.83 87.4103L285.51 80.8103C282.87 86.4203 277.72 90.3803 268.74 90.3803C257.52 90.3803 248.94 83.1203 248.94 67.5403C248.94 51.9603 258.12 44.8303 270.59 44.8303C277.59 44.8303 282.34 47.2103 284.72 50.2403L286.04 43.6403C281.82 42.5803 277.99 42.1903 272.71 42.1903C254.49 42.1903 241.95 53.1503 241.95 69.5203Z" fill="white"/>
<path d="M309.08 44.8303C311.32 44.8303 311.72 46.8103 311.72 48.7903V90.3703H305.12V92.3503H324.26V90.3703H320.3C318.06 90.3703 317.66 88.3903 317.66 86.4103V67.0003H344.06V90.3703H337.46V92.3503H356.6V90.3703H352.64C350.4 90.3703 350 88.3903 350 86.4103V44.8303H356.6V42.8503H337.46V44.8303H341.42C343.66 44.8303 344.06 46.8103 344.06 48.7903V64.2403H317.66V44.8303H324.26V42.8503H305.12V44.8303H309.08Z" fill="white"/>
<path d="M542.52 69.5203C542.52 83.7803 552.16 93.0203 567.07 93.0203C575.65 93.0203 581.99 90.7803 587.4 87.4103L586.08 80.8103C583.44 86.4203 578.29 90.3803 569.31 90.3803C558.09 90.3803 549.51 83.1203 549.51 67.5403C549.51 51.9603 558.69 44.8303 571.16 44.8303C578.16 44.8303 582.91 47.2103 585.29 50.2403L586.61 43.6403C582.39 42.5803 578.56 42.1903 573.28 42.1903C555.06 42.1903 542.52 53.1503 542.52 69.5203Z" fill="white"/>
<path d="M618.23 67.6003V45.4903H622.19C630.77 45.4903 635.79 50.1103 635.79 57.3703C635.79 64.0403 631.17 67.6003 622.85 67.6003H618.23ZM623.51 42.8503H605.69V44.8303H609.65C611.89 44.8303 612.29 46.8103 612.29 48.7903V90.3703H605.69V92.3503H627.47V90.3703H620.87C618.63 90.3703 618.23 88.3903 618.23 86.4103V69.5803H622.78L639.88 92.3503H652.42V90.3703H650.44C647.21 90.3703 644.57 88.6503 641.86 85.2203L629.25 69.2503C636.44 67.9303 642.12 62.9803 642.12 55.7803C642.12 47.1303 635.52 42.8403 623.51 42.8403V42.8503Z" fill="white"/>
<path d="M677.89 71.6303L686.27 51.5603L693.46 71.6303H677.88H677.89ZM705.22 86.4203L688.06 40.8803L667.07 90.3903H663.11V92.3703H678.29V90.3903H673.54C672.22 90.3903 671.69 89.6603 671.69 88.5403C671.69 86.4303 673.34 82.5303 674.73 79.1703L676.64 74.5503H694.53L700.21 90.3903H692.55V92.3703H711.69V90.3903H709.05C707.2 90.3903 706.15 88.9403 705.22 86.4303V86.4203Z" fill="white"/>
<path d="M730.28 44.8303C732.52 44.8303 732.92 46.8103 732.92 48.7903V90.3703H726.32V92.3503H748.1V90.3703H741.5C739.26 90.3703 738.86 88.3903 738.86 86.4103V67.1403H757.47V74.4003H759.32V58.6903H757.47V64.3703H738.86V45.4903H746.52C756.29 45.4903 759.85 47.3403 762.63 49.4503L763.95 42.8503H726.33V44.8303H730.29H730.28Z" fill="white"/>
<path d="M782.59 42.8503L781.27 49.4503C784.97 46.4103 789.59 45.4903 795.13 45.4903H797.77C800.01 45.4903 800.41 47.4703 800.41 49.4503V90.3703H793.81V92.3503H812.95V90.3703H808.99C806.75 90.3703 806.35 88.3903 806.35 86.4103V45.4903H808.73C816.25 45.4903 821.54 46.2803 824.18 49.4503L825.5 42.8503H782.59Z" fill="white"/>
<path d="M471 53.2203C480.93 49.6903 496.62 55.4603 496.62 55.4603C496.62 55.4603 495.4 46.2503 482.75 38.4103C494.57 17.5803 463.65 -9.82966 456.18 3.52034C455.38 4.95034 454.66 7.87034 454.67 10.6203C454.67 10.6203 442.38 6.17034 438.15 10.5603C433.53 15.3503 438.8 22.8303 439.64 24.0303C432.21 24.6003 428.48 28.3503 428.17 31.8103C427.7 36.8603 430.48 41.1703 436.08 43.8003C422.45 59.7203 422.68 78.1303 422.68 78.1303L426.74 75.2103C428.37 65.5103 429.52 55.4403 438.57 44.8903C443.09 45.9803 445.61 45.7603 448.36 44.4003C453.38 41.9203 452.69 37.9703 449.54 37.0203C444.8 35.5903 438.75 40.9903 437.82 41.9103C432.31 39.0503 430.95 35.3903 430.9 32.8503C430.84 30.1403 432.87 26.7003 441.58 26.5503C443.25 28.5503 449.31 33.2503 452.74 34.4603C455.77 35.5403 458.49 35.2203 459.71 33.4803C460.18 32.8203 461.5 30.3503 458.39 27.4003C455.12 24.3003 449.16 23.5103 442.39 23.6703C441 21.7003 439.99 20.2403 439.55 18.8203C436.61 9.31034 445.74 9.96034 454.71 13.4003C455.3 17.0603 457.1 22.1903 459.23 24.6403C461.57 27.3303 464.47 28.4703 466.3 27.4003C467.18 26.8803 468.52 24.4203 467.44 20.8603C465.44 14.2203 457.65 11.5103 457.65 11.5103C457.31 7.73034 458.28 5.36034 459 4.28034C463.41 -2.35966 490.9 16.8103 480.35 37.3503C475.67 35.0003 470.67 34.0903 467.18 35.4103C464.76 36.3403 463.71 38.1103 464.02 40.1403C464.35 42.3303 466.39 43.8703 469.62 44.4303C473.58 45.1203 478.52 44.0303 481.47 40.5903C484.56 42.1403 490.58 46.5503 492.54 51.7403C487.56 50.1803 478.22 48.3503 469.73 50.5803C459.62 53.2203 459.77 63.6103 462.85 69.9303C465.93 76.2403 476.4 92.0603 475.35 109.31C474.09 130.02 457.24 143.34 457.24 143.34C473.56 130.87 477.8 116.73 478.17 108.66C478.53 100.76 477.26 91.1703 472.31 80.7403C467.27 70.1503 464.46 68.0403 464.75 61.3403C465.06 54.2103 470.99 53.2103 470.99 53.2103L471 53.2203ZM448.92 39.5403C449.31 39.7503 449.51 40.0703 449.49 40.4503C449.46 40.9403 448.94 41.4303 447.91 42.0603C445.95 43.2503 443.52 43.1203 440.91 42.8003C444.95 38.7103 447.88 38.9703 448.92 39.5403ZM458.02 31.7503C457.7 32.7903 456 33.2703 454.22 32.6603C451.59 31.7503 448.05 28.8803 445.47 26.4403C456.7 25.9403 458.34 30.7103 458.02 31.7503ZM465.66 22.7703C466.15 24.1703 465.85 25.0503 465.51 25.2703C464.9 25.5303 463.52 24.7903 461.91 22.9403C460.51 21.3303 458.51 17.7403 458.24 14.3003C463.93 17.3103 464.87 20.5203 465.66 22.7703ZM470.15 42.1203C466.77 41.4203 467.02 38.7503 468.21 38.0103C472.08 35.6203 479.32 39.3903 479.49 39.4503C477.58 41.4503 474.15 42.9403 470.15 42.1203Z" fill="white"/>
</svg>
